<?xml version="1.0" encoding="UTF-8"?>
<svg xmlns="http://www.w3.org/2000/svg" xmlns:xlink="http://www.w3.org/1999/xlink" width="18px" height="18px" viewBox="0 0 18 18" version="1.1">
<g id="surface1">
<path style="fill-rule:nonzero;fill:rgb(47.450981%,50.196081%,54.11765%);fill-opacity:1;stroke-width:1;stroke-linecap:butt;stroke-linejoin:miter;stroke:rgb(47.450981%,50.196081%,54.11765%);stroke-opacity:1;stroke-miterlimit:4;" d="M 184.444444 220.555556 L 235.555556 260 C 237.444444 275.777778 250.888889 288.111111 267.222222 288.111111 C 285 288.111111 299.333333 273.777778 299.333333 256 C 299.333333 255.333333 299.222222 254.666667 299.222222 254 L 373.888889 165.555556 C 379.111111 159.666667 379.222222 151.222222 374.111111 146.777778 C 369 142.222222 360.666667 143.333333 355.444444 149.111111 L 282 227.666667 C 277.555556 225.333333 272.555556 223.888889 267.222222 223.888889 C 261.444444 223.888889 256.222222 225.444444 251.555556 228.111111 L 203.444444 194.666667 C 197.333333 190.111111 188 192.222222 182.777778 199.444444 C 177.555556 206.555556 178.333333 216 184.444444 220.555556 Z M 184.444444 220.555556 " transform="matrix(0.0351562,0,0,0.0351562,0,0)"/>
<path style="fill-rule:nonzero;fill:rgb(47.450981%,50.196081%,54.11765%);fill-opacity:1;stroke-width:1;stroke-linecap:butt;stroke-linejoin:miter;stroke:rgb(47.450981%,50.196081%,54.11765%);stroke-opacity:1;stroke-miterlimit:4;" d="M 440.333333 82.888889 C 396.111111 38.666667 334.777778 11.222222 267.222222 11.222222 L 267.222222 70.555556 C 318.555556 70.555556 364.666667 91.333333 398.333333 124.888889 C 432 158.555556 452.666667 204.666667 452.666667 256 C 452.666667 307.333333 432 353.444444 398.333333 387.111111 C 364.666667 420.666667 318.555556 441.444444 267.222222 441.444444 C 215.888889 441.444444 169.777778 420.666667 136.111111 387.111111 C 102.555556 353.444444 81.777778 307.333333 81.777778 256 C 81.777778 239.222222 84.111111 223 88.222222 207.555556 L 112.333333 222.555556 C 115.555556 224.555556 119.333333 224.888889 122.555556 223.666667 C 125.777778 222.333333 127.888889 219.444444 128.111111 216 L 138.444444 80.444444 C 138.777778 76.555556 136.555556 72.666667 133 70.333333 C 129.333333 68.111111 124.888889 67.888889 121.555556 69.888889 L 4.333333 139 C 1.444444 140.666667 -0.222222 143.777778 0 147.222222 C 0.222222 150.777778 2.333333 154 5.555556 156 L 36.222222 175.111111 C 27.333333 200.444444 22.444444 227.666667 22.444444 256 C 22.444444 323.444444 49.888889 384.888889 94.111111 429.111111 C 138.333333 473.333333 199.777778 500.777778 267.222222 500.777778 C 334.777778 500.777778 396.111111 473.333333 440.333333 429.111111 C 484.555556 384.888889 512 323.444444 512 256 C 512 188.444444 484.555556 127.111111 440.333333 82.888889 Z M 440.333333 82.888889 " transform="matrix(0.0351562,0,0,0.0351562,0,0)"/>
</g>
</svg>
