<?xml version="1.0" encoding="UTF-8"?>
<svg xmlns="http://www.w3.org/2000/svg" xmlns:xlink="http://www.w3.org/1999/xlink" width="18px" height="18px" viewBox="0 0 18 18" version="1.1">
<g id="surface1">
<path style=" stroke:none;fill-rule:nonzero;fill:rgb(47.450981%,50.196081%,54.11765%);fill-opacity:1;" d="M 9.792969 7.652344 L 10.367188 7.648438 C 10.734375 7.269531 11.175781 6.8125 11.75 6.847656 C 12.328125 6.816406 12.765625 7.261719 13.132812 7.648438 C 13.375 7.660156 13.847656 7.625 14.074219 7.707031 L 14.074219 4.046875 L 3.925781 4.046875 L 3.925781 9.894531 L 8.128906 9.894531 L 8.414062 9.605469 L 8.421875 9.027344 C 8.429688 8.273438 9.039062 7.660156 9.792969 7.652344 Z M 5.921875 6.371094 C 5.320312 6.363281 5.316406 5.457031 5.921875 5.449219 L 12.078125 5.449219 C 12.679688 5.457031 12.683594 6.359375 12.078125 6.371094 Z M 5.921875 6.371094 "/>
<path style=" stroke:none;fill-rule:nonzero;fill:rgb(47.450981%,50.196081%,54.11765%);fill-opacity:1;" d="M 15.921875 1.742188 L 2.078125 1.742188 C 1.824219 1.738281 1.617188 1.945312 1.617188 2.199219 L 1.617188 11.738281 C 1.617188 11.992188 1.824219 12.199219 2.078125 12.199219 L 8.253906 12.199219 C 7.84375 11.839844 7.542969 11.363281 7.628906 10.816406 L 3.460938 10.816406 C 3.207031 10.816406 3.003906 10.609375 3 10.355469 L 3 3.585938 C 3 3.464844 3.050781 3.347656 3.136719 3.261719 C 3.222656 3.171875 3.339844 3.125 3.464844 3.125 L 14.539062 3.125 C 14.792969 3.125 14.996094 3.332031 15 3.585938 L 15 8.574219 C 15.117188 8.832031 15.078125 9.320312 15.085938 9.605469 L 15.492188 10.011719 C 16.140625 10.695312 15.941406 11.632812 15.246094 12.199219 L 15.921875 12.199219 C 16.175781 12.199219 16.382812 11.992188 16.382812 11.738281 L 16.382812 2.199219 C 16.378906 1.945312 16.175781 1.742188 15.921875 1.742188 Z M 15.921875 1.742188 "/>
<path style=" stroke:none;fill-rule:nonzero;fill:rgb(47.450981%,50.196081%,54.11765%);fill-opacity:1;" d="M 14.40625 14.308594 L 13.132812 14.320312 L 12.542969 14.898438 L 13 16.15625 C 13.023438 16.214844 13.078125 16.257812 13.140625 16.257812 C 13.203125 16.261719 13.257812 16.226562 13.285156 16.171875 L 13.710938 15.253906 L 14.625 15.679688 C 14.679688 15.707031 14.746094 15.699219 14.792969 15.65625 C 14.839844 15.613281 14.855469 15.546875 14.835938 15.488281 Z M 14.40625 14.308594 "/>
<path style=" stroke:none;fill-rule:nonzero;fill:rgb(47.450981%,50.196081%,54.11765%);fill-opacity:1;" d="M 9.097656 14.308594 L 8.667969 15.488281 C 8.648438 15.546875 8.664062 15.613281 8.710938 15.65625 C 8.753906 15.699219 8.824219 15.707031 8.878906 15.679688 L 9.789062 15.253906 L 10.21875 16.171875 C 10.246094 16.226562 10.300781 16.261719 10.363281 16.257812 C 10.425781 16.257812 10.480469 16.214844 10.5 16.15625 L 10.960938 14.902344 L 10.367188 14.320312 Z M 9.097656 14.308594 "/>
<path style=" stroke:none;fill-rule:nonzero;fill:rgb(47.450981%,50.196081%,54.11765%);fill-opacity:1;" d="M 14.164062 9.984375 L 14.160156 9.035156 C 14.15625 8.78125 13.953125 8.578125 13.703125 8.578125 L 12.75 8.570312 L 12.074219 7.902344 C 11.894531 7.726562 11.605469 7.726562 11.429688 7.902344 L 10.75 8.570312 L 9.800781 8.578125 C 9.550781 8.578125 9.34375 8.78125 9.34375 9.035156 L 9.335938 9.984375 L 8.667969 10.660156 C 8.492188 10.839844 8.492188 11.128906 8.667969 11.308594 L 9.335938 11.984375 L 9.34375 12.933594 C 9.34375 13.1875 9.550781 13.390625 9.800781 13.390625 L 10.75 13.398438 L 11.429688 14.066406 C 11.605469 14.242188 11.894531 14.242188 12.074219 14.066406 L 12.75 13.398438 L 13.703125 13.390625 C 13.953125 13.390625 14.15625 13.1875 14.160156 12.933594 L 14.164062 11.984375 L 14.832031 11.308594 C 15.007812 11.128906 15.007812 10.839844 14.832031 10.660156 Z M 11.75 12.214844 C 10.125 12.164062 10.125 9.804688 11.75 9.753906 C 13.378906 9.804688 13.378906 12.164062 11.75 12.214844 Z M 11.75 12.214844 "/>
</g>
</svg>
